<svg xmlns="http://www.w3.org/2000/svg" width="230" height="230" fill="none" viewBox="0 0 230 230"><path fill="#f9a11b" d="M112.683 2.16c-11.73 2.978-16.042 16.3-27.001 19.737-10.828 3.394-29.807-6.336-38.301 3.186-8.471 9.495-3.478 23.608-11.989 33.321-7.84 8.95-23.969 9.31-27.111 22.146-3.09 12.618 10.091 21.791 10.216 33.999.131 12.753-16.35 24.426-9.398 37.816 5.606 10.797 21.273 9.736 27.564 20.203 5.936 9.874 1.684 27.257 12.208 34.417 10.222 6.954 26.615-2.973 37.81 1.306 10.309 3.941 18.458 22.708 31.001 19.748 12.418-2.931 16.577-16.601 28-19.977 10.939-3.232 29.556 6.296 38.526-2.827 8.691-8.839 3.568-24.819 11.963-34.423 6.896-7.889 23.552-9.866 26.858-20.267 4.21-13.243-9.725-22.681-10.214-34.997-.498-12.555 13.228-21.207 11.675-33.999-1.616-13.313-18.232-12.511-25.677-20.344-9.772-10.282-5.032-29.246-15.186-37.222-9.958-7.822-26.619 1.481-37.944-2.087-12.266-3.864-17.505-23.67-33-19.736"/><path fill="#fbe32d" d="M106.682 36.975c-11.812 1.607-22.831 5.14-33 11.49-8.56 5.345-16.416 12.743-22.1 21.084-38.038 55.819 8.171 130.933 75.1 122.714 10.396-1.277 19.922-4.837 29-10.001 71.519-40.684 32.612-156.397-49-145.287"/><path fill="#231f21" d="M83.83 108.577c-7.071 4.17-.813 15.992 6.793 11.94 8.296-4.418 1.324-16.727-6.793-11.94m56.911 0c-7.44 4.06-1.549 16.166 5.922 12.749 9.166-4.193 3.124-17.686-5.922-12.749m-40.059 20.972c1.756 21.3 29.003 21.773 30 0h-5c-2.058 12.95-17.953 13.885-19 0z"/></svg>